PathFileType	4	(X/Y/Z)	S00_P00_T01_BalancingTrial_0-100.trc
DataRate	CameraRate	NumFrames	NumMarkers	Units	OrigDataRate	OrigDataStartFrame	OrigNumFrames
60	60	8	21	m	60	37	100
Frame#	Time	RHip			RKnee			RAnkle			RBigToe			RSmallToe			RHeel			LHip			LKnee			LAnkle			LBigToe			LSmallToe			LHeel			Neck			Head			Nose			RShoulder			RElbow			RWrist			LShoulder			LElbow			LWrist		
		X1	Y1	Z1	X2	Y2	Z2	X3	Y3	Z3	X4	Y4	Z4	X5	Y5	Z5	X6	Y6	Z6	X7	Y7	Z7	X8	Y8	Z8	X9	Y9	Z9	X10	Y10	Z10	X11	Y11	Z11	X12	Y12	Z12	X13	Y13	Z13	X14	Y14	Z14	X15	Y15	Z15	X16	Y16	Z16	X17	Y17	Z17	X18	Y18	Z18	X19	Y19	Z19	X20	Y20	Z20	X21	Y21	Z21
38	0.6333333333333333	-0.20111917818619146	0.9648547421223311	-1.0980731923272522	-0.5000605265736943	0.685818021088923	-0.988642058660632	-0.6839234847309189	0.3470498273350778	-1.05952139939138	-0.7385247158444317	0.2862449237594481	-0.9303736316842794	-0.7631707901668875	0.2878362947951851	-0.9817254418445656	-0.6938611910748351	0.30831789245472707	-1.1027525415508566	-0.011633701621267638	0.8619590882005297	-1.1025532679714822	-0.06586492844355692	0.5086687205493596	-0.914428762820491	-0.01636363221660533	0.14331144951371272	-1.1555336889552021	-0.00856811549184815	0.07490877090374515	-1.000563682691469	0.020380377646047367	0.07796334774170142	-1.0369088489380167	-0.008903303188390176	0.11378808688006593	-1.2097999318520283	0.22958333074919363	1.3341915654115784	-1.060730871043324	0.3833489598897379	1.5248616822042405	-0.9199532347153088	0.31049570341661203	1.3914936872176316	-0.9020012591684878	0.07211880129099622	1.4053565342917806	-1.1140151313537685	-0.18207374701973889	1.4506534056776486	-1.1929403787270099	-0.2475473219720239	1.6086613327711996	-1.012731349961546	0.3338128096565532	1.203267080968526	-1.0880698010089447	0.36499503951115814	0.9041791079035729	-1.0993470676404518	0.3479448242575183	0.66064617501909	-0.9962521640864719
39	0.65	-0.20150552623664472	0.9667323307785289	-1.0898697381111622	-0.506628221655656	0.6934182890631285	-0.975905394648527	-0.7058174885738888	0.36138362684804776	-1.0421705001774304	-0.7624996833971895	0.30342460674734634	-0.9108239448435044	-0.7829494928399334	0.30061287727594616	-0.9672346953358212	-0.7160054197244555	0.3219826498613463	-1.0861622811109855	-0.01864851345416307	0.8619355576425439	-1.1054850031603347	-0.06763950389516876	0.5089464648402307	-0.909864551608941	-0.01693321111290742	0.14415267323503936	-1.1544073283595944	-0.009087071018298002	0.07586010271776976	-0.9988409173377084	0.02021345002852189	0.07868294038586368	-1.0358543400728335	-0.010078819156416502	0.1155555702623263	-1.2080968301050563	0.23236462584609366	1.330154387920141	-1.0535369434099642	0.38973016069115823	1.5171546262425866	-0.9234953919507104	0.31570587986871523	1.3872240753753535	-0.897397346611357	0.07365500768409079	1.403459799034593	-1.1056744929608988	-0.1795891911979742	1.4565925381255984	-1.1801149127946973	-0.23376291319355166	1.6185820667169082	-0.9983795644362198	0.33015727327514244	1.1988697249211158	-1.0953854198261974	0.3680275917154386	0.8998764188120212	-1.0992479038809622	0.3538361372247168	0.6547466836247555	-0.9948844464917179
40	0.6666666666666666	-0.20121115035750645	0.9697776654358891	-1.0804006412322433	-0.5120265439736719	0.7014134909579821	-0.962332729094107	-0.7269192994114205	0.3759470449349993	-1.0240969367297827	-0.7833007290079658	0.3202590799767398	-0.8892260000453115	-0.7999692526059933	0.3130726456254739	-0.9525212138137114	-0.7365197323099409	0.33717361034937926	-1.0691566138165605	-0.025918337457981413	0.8619747181488098	-1.1089678402504852	-0.06861918206398229	0.5092684292020673	-0.9043776667100705	-0.01730420628472082	0.14465815569360993	-1.15294062008025	-0.009407464263069326	0.07703684037610856	-0.9970989309765721	0.02025705571519343	0.07965364878577395	-1.0344446226903163	-0.011213314937423613	0.11660740596112282	-1.2056283164820754	0.23510648485031413	1.3266094446779562	-1.044089659185152	0.39616116082888797	1.5107138883361741	-0.9259895909693118	0.31995828163570794	1.3829525299344374	-0.8914572535605245	0.0749871269701927	1.4017445737751557	-1.095755954424334	-0.17707628634127606	1.46250690531723	-1.1657309401071128	-0.21965752023331647	1.6273566446784755	-0.9826240419698119	0.3249425498853659	1.1941480177141606	-1.107230052316356	0.3703656661378362	0.8961950249029216	-1.0988343088522732	0.3604397342217368	0.6498763087415002	-0.9936319131788719
41	0.6833333333333333	-0.2018315562317663	0.9731771384198152	-1.0731395687694787	-0.5166725595460859	0.7096602085715927	-0.948751833917451	-0.7466178496577308	0.39036311824291375	-1.006145407015284	-0.8007263770547653	0.337324739175349	-0.8658431078852119	-0.8146241876853856	0.3255492221055166	-0.9382457626099019	-0.7554649910485048	0.35358158551926344	-1.0520825284239153	-0.03281875115681809	0.8621177213491054	-1.111826851644676	-0.06897485044167506	0.5095632153859154	-0.8995537528694292	-0.01740566604743426	0.14473052389596391	-1.151634706080694	-0.009397632537139386	0.07804332924895449	-0.9958022425157547	0.02045505685384565	0.08040679897096129	-1.0333362240441597	-0.012118364328797636	0.1166987647543008	-1.2031626365220556	0.23795277617824068	1.3237582200481972	-1.0319829990668397	0.40256315515285634	1.5058466438897702	-0.9253945723631946	0.3231773048750054	1.378353217459361	-0.8840982701707284	0.07668807340677206	1.4003906667780475	-1.0846398678785496	-0.17466820287678841	1.4680556161061584	-1.150760977065922	-0.20554518414930756	1.634863146507364	-0.9655048808803857	0.31957851431935047	1.189584912502745	-1.1188701466010735	0.37216272950122986	0.8930892922947989	-1.0980328143960398	0.3671390529037345	0.6458498694794629	-0.9928630237880789
42	0.7	-0.2043613403932461	0.9763977469869234	-1.0709454139172339	-0.5211104958950281	0.7179422462867233	-0.9355595495078156	-0.7642404083181722	0.4042158829764392	-0.9892358791107955	-0.8153402145062596	0.3544600896914324	-0.8424251901423506	-0.8275040318990374	0.33846900412897096	-0.9245050929886711	-0.772987100932584	0.3703409066680289	-1.0354074118470487	-0.0388533804154312	0.8625350782732796	-1.1133028927714324	-0.06892714488362062	0.5096526962695751	-0.896310186941842	-0.017068158133819903	0.14426349370301964	-1.1507845030954083	-0.008949591639297602	0.0786603232926835	-0.9953882389165544	0.02096683962019489	0.08061051019684029	-1.0328301939374915	-0.012470415404129132	0.1159033066700125	-1.2014747292598909	0.24101139448775907	1.3216487036323397	-1.017682910407831	0.40865162225444895	1.5025023811824938	-0.9201901930631377	0.3252692734753836	1.3735303758376158	-0.875259575547449	0.07901466694344551	1.3993186660426191	-1.0737015171158433	-0.17233424911239803	1.473159980619165	-1.1357928870399736	-0.1914585997062779	1.6410892938214399	-0.9471931374772019	0.3151274276941699	1.1854986777412422	-1.1264243434048522	0.3737958380240242	0.8904288783991117	-1.0968330404497546	0.3736254238860859	0.6424716978928706	-0.9926424343640107
43	0.7166666666666667	-0.2091497307402391	0.9793450353936554	-1.0749755009238036	-0.5255831247147027	0.7258994539481225	-0.9230118984889116	-0.7791597452933617	0.41704278714534015	-0.9743568136631264	-0.8277560352598103	0.37117765232585254	-0.8204884084460649	-0.8388523121648496	0.35183941927502327	-0.9106565936335709	-0.7889105159914627	0.38628874746362457	-1.019627369707684	-0.043961259274660026	0.8634263287532595	-1.1133830827681683	-0.0687357814094013	0.5095244550196316	-0.8947270778027898	-0.016308342321962	0.14331617869105712	-1.1503265046366042	-0.008118008621713987	0.07880173493541094	-0.9960545126581538	0.021842329352624385	0.08023230505319796	-1.032887026633802	-0.01216124837512326	0.1146680889160383	-1.200854821997316	0.24404970401322076	1.3200262557646667	-1.0028088472596999	0.414221174343698	1.500200024925943	-0.910006156867141	0.32644953493476137	1.3689041712762968	-0.8652522804975117	0.08162112895681123	1.398389233986054	-1.0644030537013578	-0.17005299829917386	1.4779292339737298	-1.120781243087015	-0.17734748818772547	1.646117059948743	-0.9283903902558924	0.31199816104808464	1.1819979674037642	-1.1281272073896054	0.37559003368299376	0.8881656428719679	-1.0952253782180894	0.37988099724128793	0.6397507172705845	-0.992773492713481
44	0.7333333333333333	-0.21587741897051554	0.9821737427702939	-1.08358037619514	-0.529813566010392	0.7331202023266553	-0.9114381262885107	-0.7910138099983461	0.4282922286260613	-0.9621560534176505	-0.83813801684434	0.3873474398122073	-0.7997071799606947	-0.8485820974273088	0.3653425585030849	-0.8956969875593247	-0.8026885094924581	0.4006507485556752	-1.005252726367757	-0.04840015580939923	0.8648679688365438	-1.1125290350448824	-0.06875120156669319	0.5094303285866711	-0.8944374501654411	-0.01542577322218672	0.1421910041702039	-1.1500607125827889	-0.007143594367302265	0.07847399845575385	-0.9976548344060766	0.022869870262041386	0.0795174126458233	-1.0332943313202887	-0.011429349353048068	0.11367863746586362	-1.2010399042878819	0.24655071126860442	1.318543037913052	-0.9894043362686419	0.41925937007449393	1.498183090126704	-0.8959252492779081	0.32731956015282104	1.3648989727878087	-0.8549341469297096	0.084128688453012	1.3976986922078372	-1.0565777369798819	-0.16787496176600342	1.4825257688612454	-1.1050089579318927	-0.1632478981986236	1.6500624577752747	-0.9101063541844242	0.3102901257689245	1.1792545806822428	-1.1237099991819952	0.37767453872398893	0.8862492784065575	-1.09329656108969	0.3859580599062033	0.6378332620352601	-0.9930276283566452
45	0.75	-0.2232041428683704	0.9850528673106989	-1.0918604507867624	-0.5332122886248933	0.7393286242869682	-0.9010971006682472	-0.7998245223965712	0.43747025027714914	-0.9524031586920652	-0.8463501754211115	0.40296348599103665	-0.7788639045179061	-0.8565387831911914	0.3786014472760557	-0.8789574946811713	-0.8136421216444606	0.41323999735863837	-0.9927693022699159	-0.052484230529466554	0.8667756968858331	-1.1111133522765053	-0.06932054484519494	0.5096597819392049	-0.8950746300476409	-0.014760409668754106	0.14130362368221994	-1.1499287112322227	-0.006330385664659498	0.07788382783338488	-0.9997298867376675	0.023747144095503585	0.07884618590881333	-1.0337721588832436	-0.010649033768079555	0.113522663082543	-1.201533171552571	0.24811458692178487	1.3171269029049446	-0.9785568360096806	0.4237907824950401	1.4957923010886254	-0.8798892457160176	0.3284928758839547	1.3616735074412347	-0.845294914449834	0.08647919823108742	1.3975296777948645	-1.0486614762879019	-0.16578711254037806	1.4870108755844007	-1.087602143463054	-0.14922717597594007	1.6530236733647352	-0.8929695520915023	0.3100954083049905	1.177563174815711	-1.11369577091737	0.37995715162978505	0.8844886833881802	-1.0913293809271147	0.3918425830587381	0.6367725662168524	-0.9933506908527348
